<?xml version="1.0" standalone="no"?>
<!DOCTYPE svg PUBLIC "-//W3C//DTD SVG 20010904//EN"
 "http://www.w3.org/TR/2001/REC-SVG-20010904/DTD/svg10.dtd">
<svg version="1.0" xmlns="http://www.w3.org/2000/svg"
 width="700.000000pt" height="700.000000pt" viewBox="0 0 700.000000 700.000000"
 preserveAspectRatio="xMidYMid meet">
<metadata>
Created by potrace 1.11, written by Peter Selinger 2001-2013
</metadata>
<g transform="translate(0.000000,700.000000) scale(0.100000,-0.100000)"
fill="#000000" stroke="none">
<path d="M3497 6903 c-2 -4 -17 -46 -32 -93 -51 -158 -115 -289 -229 -473 -72
-116 -246 -357 -268 -370 -11 -8 -31 2 -79 39 -143 110 -304 172 -465 181
-188 10 -334 -36 -529 -167 -128 -87 -269 -150 -333 -150 -56 0 -139 25 -215
65 -37 19 -70 35 -72 35 -2 0 12 -26 31 -57 47 -79 78 -181 72 -243 -6 -59
-75 -206 -146 -312 -122 -182 -162 -289 -170 -454 -5 -123 10 -217 54 -325 27
-66 89 -173 132 -228 70 -88 68 -75 20 -119 -365 -340 -815 -626 -1136 -721
-40 -12 -72 -24 -72 -26 0 -2 37 -15 83 -30 231 -74 468 -202 727 -391 120
-88 306 -239 391 -319 l49 -46 -62 -84 c-124 -165 -178 -305 -185 -486 -8
-183 29 -302 156 -497 90 -139 153 -269 159 -333 6 -60 -26 -165 -74 -244 -18
-30 -31 -55 -29 -55 1 0 38 17 81 39 94 46 169 65 230 58 57 -6 202 -76 324
-156 117 -78 199 -117 298 -142 101 -26 243 -25 348 1 99 25 244 96 329 160
35 28 69 50 74 50 10 0 148 -182 228 -300 128 -191 225 -383 279 -552 15 -46
29 -87 32 -92 3 -6 13 17 23 50 52 181 150 380 292 594 75 113 217 300 227
300 5 0 42 -25 82 -55 149 -111 294 -164 468 -172 184 -9 306 30 501 159 52
33 137 82 189 107 85 41 102 46 165 46 72 0 142 -22 230 -72 22 -13 43 -23 47
-23 3 0 -9 26 -28 58 -47 77 -78 181 -72 240 6 62 72 201 160 336 117 179 158
300 158 471 0 174 -61 342 -185 507 l-66 87 43 39 c389 358 831 636 1148 723
25 7 49 16 53 20 5 4 -24 17 -65 30 -234 72 -492 213 -768 417 -94 69 -267
210 -316 257 -6 5 -30 27 -53 48 l-43 38 26 32 c155 191 226 368 226 568 0
165 -46 299 -159 468 -83 123 -153 268 -159 331 -6 62 25 164 72 243 19 31 30
57 25 57 -5 0 -27 -11 -47 -25 -54 -36 -147 -66 -218 -72 -58 -5 -68 -3 -166
44 -58 28 -140 74 -183 103 -95 64 -210 122 -290 147 -46 14 -92 18 -200 18
-127 -1 -148 -3 -220 -29 -103 -36 -204 -89 -282 -148 -34 -27 -67 -48 -72
-48 -15 0 -178 222 -267 362 -103 162 -185 329 -233 471 -21 65 -41 115 -44
110z m-693 -2663 c44 -11 89 -20 102 -20 38 0 36 -15 -9 -57 -23 -22 -65 -65
-94 -96 -52 -58 -63 -58 -63 -3 0 21 -32 154 -46 191 -6 14 -3 16 12 11 10 -3
55 -15 98 -26z m1501 13 c-9 -24 -42 -159 -50 -207 l-7 -40 -41 49 c-53 63
-73 83 -120 122 -42 37 -49 31 67 54 32 6 75 17 95 24 51 19 65 18 56 -2z m92
-570 c-3 -10 -5 -2 -5 17 0 19 2 27 5 18 2 -10 2 -26 0 -35z m-1790 -395 c-3
-8 -6 -5 -6 6 -1 11 2 17 5 13 3 -3 4 -12 1 -19z m1790 -30 c-2 -13 -4 -5 -4
17 -1 22 1 32 4 23 2 -10 2 -28 0 -40z m-1515 -438 c59 -56 63 -70 23 -70 -17
0 -100 -20 -199 -48 -16 -4 -18 -2 -12 14 10 25 32 114 46 188 l12 60 36 -45
c20 -24 62 -69 94 -99z m1382 59 c8 -41 22 -96 30 -124 8 -27 13 -51 11 -53
-2 -2 -25 3 -52 11 -26 9 -75 21 -108 27 -33 7 -67 14 -74 17 -10 2 6 24 51
67 36 35 78 80 93 100 15 20 29 35 31 33 2 -2 10 -37 18 -78z"/>
</g>
</svg>
