<?xml version="1.0" encoding="UTF-8" standalone="no"?>
<!-- Generator: Adobe Illustrator 23.1.0, SVG Export Plug-In . SVG Version: 6.00 Build 0)  -->

<svg
   xmlns:dc="http://purl.org/dc/elements/1.1/"
   xmlns:cc="http://creativecommons.org/ns#"
   xmlns:rdf="http://www.w3.org/1999/02/22-rdf-syntax-ns#"
   xmlns:svg="http://www.w3.org/2000/svg"
   xmlns="http://www.w3.org/2000/svg"
   xmlns:xlink="http://www.w3.org/1999/xlink"
   xmlns:sodipodi="http://sodipodi.sourceforge.net/DTD/sodipodi-0.dtd"
   xmlns:inkscape="http://www.inkscape.org/namespaces/inkscape"
   version="1.1"
   id="Ebene_1"
   x="0px"
   y="0px"
   viewBox="0 0 609.99997 609.99999"
   xml:space="preserve"
   sodipodi:docname="LogoMain.svg"
   width="610"
   height="610"
   inkscape:version="0.92.4 (5da689c313, 2019-01-14)"><metadata
   id="metadata147"><rdf:RDF><cc:Work
       rdf:about=""><dc:format>image/svg+xml</dc:format><dc:type
         rdf:resource="http://purl.org/dc/dcmitype/StillImage" /><dc:title></dc:title></cc:Work></rdf:RDF></metadata><defs
   id="defs145" /><sodipodi:namedview
   pagecolor="#ffffff"
   bordercolor="#666666"
   borderopacity="1"
   objecttolerance="10"
   gridtolerance="10"
   guidetolerance="10"
   inkscape:pageopacity="0"
   inkscape:pageshadow="2"
   inkscape:window-width="1920"
   inkscape:window-height="1017"
   id="namedview143"
   showgrid="false"
   inkscape:zoom="0.5606433"
   inkscape:cx="939.75303"
   inkscape:cy="366.1582"
   inkscape:window-x="1358"
   inkscape:window-y="-8"
   inkscape:window-maximized="1"
   inkscape:current-layer="Ebene_1" />
<style
   type="text/css"
   id="style2">
	.st0{clip-path:url(#SVGID_2_);fill:#A49C4A;stroke:#CFAE23;stroke-miterlimit:10;}
	.st1{clip-path:url(#SVGID_2_);fill:#CFAE23;stroke:#CFAE23;stroke-miterlimit:10;}
	.st2{clip-path:url(#SVGID_4_);fill:#020203;}
</style>
<g
   id="g130"
   transform="translate(-313.92509,-104.00037)">
	<defs
   id="defs5">
		<rect
   id="SVGID_1_"
   width="1190.55"
   height="841.89001"
   x="0"
   y="0" />
	</defs>
	<clipPath
   id="SVGID_2_">
		<use
   xlink:href="#SVGID_1_"
   style="overflow:visible"
   id="use7"
   x="0"
   y="0"
   width="100%"
   height="100%" />
	</clipPath>
	<path
   class="st0"
   d="m 424.55,262.96 c 0.01,-0.01 0.03,-0.03 0.04,-0.05 0.18,-0.44 0.37,-0.87 0.56,-1.31 -0.21,0.46 -0.4,0.91 -0.6,1.36"
   clip-path="url(#SVGID_2_)"
   id="path10"
   inkscape:connector-curvature="0"
   style="fill:#a49c4a;stroke:#cfae23;stroke-miterlimit:10" />
	<path
   class="st0"
   d="m 440.76,235.13 c 0.14,-0.18 0.26,-0.36 0.4,-0.54 0.73,-1.49 1.34,-2.92 1.81,-4.38 -0.7,1.63 -1.5,3.39 -2.21,4.92"
   clip-path="url(#SVGID_2_)"
   id="path12"
   inkscape:connector-curvature="0"
   style="fill:#a49c4a;stroke:#cfae23;stroke-miterlimit:10" />
	<path
   class="st0"
   d="m 640.91,191.05 c 2.05,2.94 4.02,5.94 6.13,8.84 0.11,0.03 0.23,0.08 0.34,0.11 -2.76,-3.88 -5.48,-7.91 -8.1,-12.05 0.54,1.04 1.09,2.07 1.63,3.1"
   clip-path="url(#SVGID_2_)"
   id="path14"
   inkscape:connector-curvature="0"
   style="fill:#a49c4a;stroke:#cfae23;stroke-miterlimit:10" />
	<path
   class="st0"
   d="m 637.99,332.47 c -0.02,-0.01 -0.03,-0.02 -0.05,-0.03 -0.04,0 -0.09,-0.01 -0.13,-0.01 0.07,0.01 0.12,0.02 0.18,0.04"
   clip-path="url(#SVGID_2_)"
   id="path16"
   inkscape:connector-curvature="0"
   style="fill:#a49c4a;stroke:#cfae23;stroke-miterlimit:10" />
	<path
   class="st0"
   d="m 679.9,343.02 c -1.56,0.37 -3.06,0.69 -4.5,0.97 1.51,-0.25 3.02,-0.57 4.5,-0.97"
   clip-path="url(#SVGID_2_)"
   id="path18"
   inkscape:connector-curvature="0"
   style="fill:#a49c4a;stroke:#cfae23;stroke-miterlimit:10" />
	<path
   class="st0"
   d="m 551.42,327.68 c -1.85,-1.29 -3.64,-2.75 -5.33,-4.4 -1.39,-1.36 -2.65,-2.77 -3.78,-4.24 1.07,1.46 2.24,2.87 3.54,4.21 1.62,1.7 3.51,3.16 5.57,4.43"
   clip-path="url(#SVGID_2_)"
   id="path20"
   inkscape:connector-curvature="0"
   style="fill:#a49c4a;stroke:#cfae23;stroke-miterlimit:10" />
	<path
   class="st0"
   d="m 462.5,316.68 c -0.1,0.05 -0.19,0.11 -0.29,0.16 0.12,-0.06 0.23,-0.11 0.35,-0.16 -0.02,-0.01 -0.04,0 -0.06,0"
   clip-path="url(#SVGID_2_)"
   id="path22"
   inkscape:connector-curvature="0"
   style="fill:#a49c4a;stroke:#cfae23;stroke-miterlimit:10" />
	<path
   class="st0"
   d="m 430.1,202.68 c -1,-2.55 -2.19,-5 -3.44,-7.17 -0.01,0.02 -0.02,0.03 -0.03,0.05 1.19,2.33 2.39,4.7 3.47,7.12"
   clip-path="url(#SVGID_2_)"
   id="path24"
   inkscape:connector-curvature="0"
   style="fill:#a49c4a;stroke:#cfae23;stroke-miterlimit:10" />
	<path
   class="st0"
   d="m 423.06,335.36 c -0.54,-0.65 -1.1,-1.35 -1.67,-2.09 0.52,0.71 1.05,1.42 1.59,2.11 0.02,-0.01 0.05,-0.01 0.08,-0.02"
   clip-path="url(#SVGID_2_)"
   id="path26"
   inkscape:connector-curvature="0"
   style="fill:#a49c4a;stroke:#cfae23;stroke-miterlimit:10" />
	<path
   class="st0"
   d="m 516.81,301.44 c -0.01,0.01 -0.01,0.03 -0.01,0.04 0.01,0.02 0.02,0.04 0.03,0.05 -0.01,-0.03 -0.01,-0.06 -0.02,-0.09"
   clip-path="url(#SVGID_2_)"
   id="path28"
   inkscape:connector-curvature="0"
   style="fill:#a49c4a;stroke:#cfae23;stroke-miterlimit:10" />
	<path
   class="st0"
   d="m 501.46,174.79 c -2.52,0.67 -4.97,1.56 -7.32,2.8 2.47,-1.1 4.91,-2.03 7.32,-2.8"
   clip-path="url(#SVGID_2_)"
   id="path30"
   inkscape:connector-curvature="0"
   style="fill:#a49c4a;stroke:#cfae23;stroke-miterlimit:10" />
	<path
   class="st0"
   d="m 437.61,332.14 c -0.18,-0.02 -0.36,-0.04 -0.54,-0.08 0.09,0.11 0.18,0.21 0.26,0.3 0.09,-0.08 0.18,-0.15 0.28,-0.22"
   clip-path="url(#SVGID_2_)"
   id="path32"
   inkscape:connector-curvature="0"
   style="fill:#a49c4a;stroke:#cfae23;stroke-miterlimit:10" />
	<path
   class="st0"
   d="m 519.64,311.43 c -0.09,0.11 -0.19,0.21 -0.31,0.29 0.16,0.07 0.33,0.13 0.49,0.2 -0.06,-0.16 -0.11,-0.32 -0.18,-0.49"
   clip-path="url(#SVGID_2_)"
   id="path34"
   inkscape:connector-curvature="0"
   style="fill:#a49c4a;stroke:#cfae23;stroke-miterlimit:10" />
	<path
   class="st0"
   d="m 661.22,218.22 c 0.08,0.05 0.17,0.09 0.25,0.14 -0.12,-0.15 -0.24,-0.29 -0.36,-0.44 0.03,0.1 0.08,0.2 0.11,0.3"
   clip-path="url(#SVGID_2_)"
   id="path36"
   inkscape:connector-curvature="0"
   style="fill:#a49c4a;stroke:#cfae23;stroke-miterlimit:10" />
	<path
   class="st0"
   d="m 572.31,474.03 c -0.03,0.07 -0.06,0.13 -0.1,0.2 0.1,-0.01 0.2,-0.03 0.3,-0.04 -0.06,-0.05 -0.13,-0.11 -0.2,-0.16"
   clip-path="url(#SVGID_2_)"
   id="path38"
   inkscape:connector-curvature="0"
   style="fill:#a49c4a;stroke:#cfae23;stroke-miterlimit:10" />
	<path
   class="st0"
   d="m 810.25,229.93 c -0.31,-0.46 -0.61,-0.93 -0.9,-1.41 0.39,0.85 0.77,1.67 1.13,2.44 -0.03,-0.17 -0.07,-0.34 -0.1,-0.51 -0.02,-0.13 -0.02,-0.25 -0.03,-0.38 -0.03,-0.05 -0.07,-0.09 -0.1,-0.14"
   clip-path="url(#SVGID_2_)"
   id="path40"
   inkscape:connector-curvature="0"
   style="fill:#a49c4a;stroke:#cfae23;stroke-miterlimit:10" />
	<path
   class="st0"
   d="m 819.06,284.45 c -0.03,2.44 -0.09,4.96 -0.21,7.51 0.22,-2.43 0.3,-4.94 0.21,-7.51"
   clip-path="url(#SVGID_2_)"
   id="path42"
   inkscape:connector-curvature="0"
   style="fill:#a49c4a;stroke:#cfae23;stroke-miterlimit:10" />
	<path
   class="st0"
   d="m 695.75,226.82 c -0.16,-0.19 -0.31,-0.4 -0.47,-0.59 -0.19,-0.14 -0.37,-0.29 -0.56,-0.45 0.36,0.43 0.72,0.87 1.06,1.3 0,-0.09 -0.02,-0.18 -0.03,-0.26"
   clip-path="url(#SVGID_2_)"
   id="path44"
   inkscape:connector-curvature="0"
   style="fill:#a49c4a;stroke:#cfae23;stroke-miterlimit:10" />
	<path
   class="st0"
   d="m 608.21,646.47 c -0.22,-0.29 -0.42,-0.56 -0.64,-0.85 0.33,0.62 0.66,1.23 0.98,1.85 -0.11,-0.33 -0.24,-0.66 -0.34,-1"
   clip-path="url(#SVGID_2_)"
   id="path46"
   inkscape:connector-curvature="0"
   style="fill:#a49c4a;stroke:#cfae23;stroke-miterlimit:10" />
	<polyline
   class="st0"
   points="446.01,600.75 446.01,600.74 446.01,600.74 446.01,600.75  "
   clip-path="url(#SVGID_2_)"
   id="polyline48"
   style="fill:#a49c4a;stroke:#cfae23;stroke-miterlimit:10" />
	<path
   class="st0"
   d="m 652.97,483.52 c 0.06,-0.02 0.12,-0.03 0.18,-0.05 -0.17,-0.01 -0.33,-0.03 -0.5,-0.04 0.1,0.04 0.21,0.06 0.32,0.09"
   clip-path="url(#SVGID_2_)"
   id="path50"
   inkscape:connector-curvature="0"
   style="fill:#a49c4a;stroke:#cfae23;stroke-miterlimit:10" />
	<path
   class="st0"
   d="m 398.4,430.54 c 4.02,2.68 7.92,5.44 11.65,8.22 -3.69,-2.99 -7.54,-5.78 -11.65,-8.22"
   clip-path="url(#SVGID_2_)"
   id="path52"
   inkscape:connector-curvature="0"
   style="fill:#a49c4a;stroke:#cfae23;stroke-miterlimit:10" />
	<path
   class="st0"
   d="m 623.05,662.85 c -0.1,0.35 -0.2,0.7 -0.29,1.04 0.15,-0.4 0.31,-0.81 0.47,-1.21 -0.06,0.07 -0.12,0.13 -0.18,0.17"
   clip-path="url(#SVGID_2_)"
   id="path54"
   inkscape:connector-curvature="0"
   style="fill:#a49c4a;stroke:#cfae23;stroke-miterlimit:10" />
	<path
   class="st0"
   d="m 673.73,587.17 c -0.03,0.02 -0.05,0.05 -0.08,0.08 0,0.01 -0.01,0.01 -0.01,0.01 0.04,-0.03 0.07,-0.06 0.09,-0.09"
   clip-path="url(#SVGID_2_)"
   id="path56"
   inkscape:connector-curvature="0"
   style="fill:#a49c4a;stroke:#cfae23;stroke-miterlimit:10" />
	<path
   class="st0"
   d="m 627.98,686.62 c 1.12,-2.28 2.23,-4.57 3.33,-6.86 0.24,-0.5 0.48,-1 0.72,-1.5 -1.43,2.77 -2.78,5.56 -4.05,8.36"
   clip-path="url(#SVGID_2_)"
   id="path58"
   inkscape:connector-curvature="0"
   style="fill:#a49c4a;stroke:#cfae23;stroke-miterlimit:10" />
	<path
   class="st0"
   d="m 628.84,134.9 c -0.01,-0.04 -0.03,-0.09 -0.04,-0.13 -0.03,-0.03 -0.05,-0.06 -0.07,-0.09 0.04,0.07 0.07,0.15 0.11,0.22"
   clip-path="url(#SVGID_2_)"
   id="path60"
   inkscape:connector-curvature="0"
   style="fill:#a49c4a;stroke:#cfae23;stroke-miterlimit:10" />
	<path
   class="st0"
   d="m 686.96,179.53 c -0.44,0.13 -0.88,0.27 -1.33,0.39 -0.57,0.39 -1.12,0.79 -1.68,1.2 0.97,-0.54 1.98,-1.07 3.01,-1.59"
   clip-path="url(#SVGID_2_)"
   id="path62"
   inkscape:connector-curvature="0"
   style="fill:#a49c4a;stroke:#cfae23;stroke-miterlimit:10" />
	<path
   class="st0"
   d="m 786.06,200.03 c 1.77,0.52 4.12,0.55 6.73,0.19 -2.29,0.15 -4.6,0.08 -6.9,-0.24 z"
   clip-path="url(#SVGID_2_)"
   id="path64"
   inkscape:connector-curvature="0"
   style="fill:#a49c4a;stroke:#cfae23;stroke-miterlimit:10" />
	<path
   class="st0"
   d="m 705.08,350.36 c 0,-0.08 0,-0.17 0.01,-0.25 -0.11,0.34 -0.23,0.68 -0.34,1.04 0.1,-0.27 0.21,-0.53 0.33,-0.79"
   clip-path="url(#SVGID_2_)"
   id="path66"
   inkscape:connector-curvature="0"
   style="fill:#a49c4a;stroke:#cfae23;stroke-miterlimit:10" />
	<path
   class="st0"
   d="m 444.53,492.55 0.07,0.02 c -0.03,-0.02 -0.05,-0.04 -0.08,-0.06 0,0.01 0,0.02 0.01,0.04"
   clip-path="url(#SVGID_2_)"
   id="path68"
   inkscape:connector-curvature="0"
   style="fill:#a49c4a;stroke:#cfae23;stroke-miterlimit:10" />
	<path
   class="st0"
   d="m 847.74,393.86 c -0.29,-0.18 -0.57,-0.36 -0.86,-0.53 0.28,0.18 0.57,0.36 0.86,0.53"
   clip-path="url(#SVGID_2_)"
   id="path70"
   inkscape:connector-curvature="0"
   style="fill:#a49c4a;stroke:#cfae23;stroke-miterlimit:10" />
	<path
   class="st0"
   d="m 683.41,638.23 c 0.47,0.4 0.94,0.79 1.42,1.17 1.26,0.59 2.53,1.16 3.8,1.72 0.22,0.02 0.44,0.07 0.67,0.14 -2.08,-0.97 -4.04,-1.99 -5.89,-3.03"
   clip-path="url(#SVGID_2_)"
   id="path72"
   inkscape:connector-curvature="0"
   style="fill:#a49c4a;stroke:#cfae23;stroke-miterlimit:10" />
	<path
   class="st0"
   d="m 595.22,161.15 c -2.63,3.83 -5.3,7.65 -7.88,11.51 -0.41,0.61 -0.81,1.24 -1.21,1.86 3.1,-4.32 6.15,-8.79 9.09,-13.37"
   clip-path="url(#SVGID_2_)"
   id="path74"
   inkscape:connector-curvature="0"
   style="fill:#a49c4a;stroke:#cfae23;stroke-miterlimit:10" />
	<path
   class="st0"
   d="m 905.2,415.32 c 1.01,-0.32 2.02,-0.64 3.03,-0.96 1.17,-0.51 2.35,-0.98 3.55,-1.39 0.12,-0.05 0.25,-0.11 0.37,-0.16 -2.31,0.78 -4.63,1.61 -6.95,2.51"
   clip-path="url(#SVGID_2_)"
   id="path76"
   inkscape:connector-curvature="0"
   style="fill:#a49c4a;stroke:#cfae23;stroke-miterlimit:10" />
	<path
   class="st0"
   d="m 691.26,642.14 c 0.35,0.17 0.7,0.36 1.05,0.52 0.38,0.14 0.76,0.27 1.15,0.39 -0.74,-0.3 -1.47,-0.6 -2.2,-0.91"
   clip-path="url(#SVGID_2_)"
   id="path78"
   inkscape:connector-curvature="0"
   style="fill:#a49c4a;stroke:#cfae23;stroke-miterlimit:10" />
	<path
   class="st0"
   d="m 666.91,626.21 c -0.18,0.23 -0.37,0.47 -0.55,0.7 0.46,-0.04 0.93,0 1.38,0.16 0.08,0.03 0.15,0.06 0.23,0.09 -0.39,-0.33 -0.74,-0.65 -1.06,-0.95"
   clip-path="url(#SVGID_2_)"
   id="path80"
   inkscape:connector-curvature="0"
   style="fill:#a49c4a;stroke:#cfae23;stroke-miterlimit:10" />
	<path
   class="st0"
   d="m 498.73,643.93 c 1.67,0.8 3.39,1.51 5.15,2.12 0.32,-0.08 0.65,-0.14 0.97,-0.2 -2.01,-0.53 -4.05,-1.16 -6.12,-1.92"
   clip-path="url(#SVGID_2_)"
   id="path82"
   inkscape:connector-curvature="0"
   style="fill:#a49c4a;stroke:#cfae23;stroke-miterlimit:10" />
	<path
   class="st0"
   d="m 579.8,636.51 c -0.03,0.17 -0.05,0.34 -0.1,0.5 1.42,2.04 3.05,3.97 4.54,5.85 1.75,2.22 3.3,4.5 4.8,6.82 0.11,0 0.22,0.02 0.33,0.03 -3.16,-4.55 -6.37,-8.96 -9.57,-13.2"
   clip-path="url(#SVGID_2_)"
   id="path84"
   inkscape:connector-curvature="0"
   style="fill:#a49c4a;stroke:#cfae23;stroke-miterlimit:10" />
	<path
   class="st0"
   d="m 697.94,387.81 c -0.01,-0.39 -0.02,-0.78 -0.02,-1.17 -0.06,0.52 -0.11,1.06 -0.17,1.6 0.07,-0.15 0.12,-0.3 0.19,-0.43"
   clip-path="url(#SVGID_2_)"
   id="path86"
   inkscape:connector-curvature="0"
   style="fill:#a49c4a;stroke:#cfae23;stroke-miterlimit:10" />
	<path
   class="st0"
   d="m 449.8,619.22 c 0.82,0.08 1.64,0.19 2.46,0.33 -0.74,-0.19 -1.56,-0.3 -2.46,-0.33"
   clip-path="url(#SVGID_2_)"
   id="path88"
   inkscape:connector-curvature="0"
   style="fill:#a49c4a;stroke:#cfae23;stroke-miterlimit:10" />
	<path
   class="st0"
   d="m 817.62,447.15 c -3.66,2.97 -7.3,5.93 -10.97,8.85 -0.68,0.85 -1.38,1.68 -2.09,2.5 5.5,-4.89 11.92,-10.35 19.03,-15.88 -2.03,1.47 -4.04,2.96 -5.97,4.53"
   clip-path="url(#SVGID_2_)"
   id="path90"
   inkscape:connector-curvature="0"
   style="fill:#a49c4a;stroke:#cfae23;stroke-miterlimit:10" />
	<path
   class="st0"
   d="m 409.14,462.95 c -0.58,-0.49 -1.17,-0.98 -1.76,-1.47 0.52,0.5 1.06,0.98 1.57,1.48 0.07,0 0.13,0 0.19,-0.01"
   clip-path="url(#SVGID_2_)"
   id="path92"
   inkscape:connector-curvature="0"
   style="fill:#a49c4a;stroke:#cfae23;stroke-miterlimit:10" />
	<path
   class="st0"
   d="m 437.3,487.32 c 0.02,0 0.03,0 0.05,0 -0.01,-0.01 -0.02,-0.02 -0.03,-0.02 0,0.01 -0.01,0.02 -0.02,0.02"
   clip-path="url(#SVGID_2_)"
   id="path94"
   inkscape:connector-curvature="0"
   style="fill:#a49c4a;stroke:#cfae23;stroke-miterlimit:10" />
	<path
   class="st0"
   d="m 543.28,628.66 c -0.05,0.03 -0.09,0.08 -0.15,0.11 -1.12,0.66 -2.26,1.21 -3.42,1.71 1.76,-0.71 3.44,-1.48 5.04,-2.29 -0.49,0.16 -0.98,0.33 -1.47,0.47"
   clip-path="url(#SVGID_2_)"
   id="path96"
   inkscape:connector-curvature="0"
   style="fill:#a49c4a;stroke:#cfae23;stroke-miterlimit:10" />
	<path
   class="st0"
   d="m 518.34,546.72 c 0.05,0.11 0.1,0.22 0.15,0.33 -0.05,-0.19 -0.11,-0.39 -0.16,-0.58 0,0.08 0.01,0.17 0.01,0.25"
   clip-path="url(#SVGID_2_)"
   id="path98"
   inkscape:connector-curvature="0"
   style="fill:#a49c4a;stroke:#cfae23;stroke-miterlimit:10" />
	<path
   class="st0"
   d="m 418.64,471.16 c -0.68,-0.6 -1.38,-1.22 -2.08,-1.84 0.01,0.07 0.03,0.13 0.04,0.2 0.67,0.55 1.35,1.09 2.04,1.64"
   clip-path="url(#SVGID_2_)"
   id="path100"
   inkscape:connector-curvature="0"
   style="fill:#a49c4a;stroke:#cfae23;stroke-miterlimit:10" />
	<path
   class="st0"
   d="m 572.29,626.81 c -0.16,-0.2 -0.32,-0.4 -0.48,-0.6 -0.12,0.11 -0.24,0.22 -0.36,0.34 0.29,0.05 0.57,0.14 0.84,0.26"
   clip-path="url(#SVGID_2_)"
   id="path102"
   inkscape:connector-curvature="0"
   style="fill:#a49c4a;stroke:#cfae23;stroke-miterlimit:10" />
	<path
   class="st0"
   d="m 786.71,473.85 c -0.12,0.11 -0.23,0.22 -0.35,0.34 0.34,-0.26 0.68,-0.51 1.03,-0.77 -0.23,0.13 -0.45,0.29 -0.68,0.43"
   clip-path="url(#SVGID_2_)"
   id="path104"
   inkscape:connector-curvature="0"
   style="fill:#a49c4a;stroke:#cfae23;stroke-miterlimit:10" />
	<path
   class="st0"
   d="m 811.33,479.03 c -0.07,0.06 -0.14,0.12 -0.21,0.18 0.06,0.06 0.12,0.12 0.17,0.18 0.01,-0.12 0.03,-0.24 0.04,-0.36"
   clip-path="url(#SVGID_2_)"
   id="path106"
   inkscape:connector-curvature="0"
   style="fill:#a49c4a;stroke:#cfae23;stroke-miterlimit:10" />
	<path
   class="st0"
   d="m 793.87,607.34 c -0.03,-0.08 -0.06,-0.15 -0.09,-0.23 -0.06,0.07 -0.11,0.14 -0.18,0.2 0.09,0.02 0.18,0.02 0.27,0.03"
   clip-path="url(#SVGID_2_)"
   id="path108"
   inkscape:connector-curvature="0"
   style="fill:#a49c4a;stroke:#cfae23;stroke-miterlimit:10" />
	<path
   class="st1"
   d="m 429.75,338.55 c 1.77,-1.52 3.54,-2.97 5.32,-4.38 -4.34,-5.03 -35.09,-43.32 -5.92,-85.29 0.06,-0.07 1.5,-1.97 3.47,-5.02 1.34,-2.09 2.58,-4.16 3.69,-6.17 0.54,-0.97 4.39,-9.02 5.41,-12.21 l 0.32,-1.05 c 1.95,-6.66 2.12,-9.27 -0.67,-14.08 -0.43,-0.89 -1.35,-1.98 -1.73,-2.39 0.36,0.32 1.5,1.07 2.06,1.21 7.1,2.76 10.47,0 16.73,-1.85 l 2.07,-0.62 c 3.24,-1.03 11.42,-4.98 12.21,-5.42 2.06,-1.12 4.13,-2.37 6.16,-3.69 3.05,-1.97 4.95,-3.42 4.97,-3.43 39.65,-27.57 73.15,0.76 80.76,8.12 1.78,-2.11 3.6,-4.33 5.44,-6.61 -9.75,-9.32 -45.01,-37.7 -87.65,-8.08 -0.04,0.03 -2.25,1.72 -5.84,4.04 -2.36,1.54 -4.81,2.99 -7.26,4.34 -1.18,0.66 -10.68,5.21 -14.55,6.45 l -1.25,0.39 c -6.42,1.89 -15.57,-0.63 -23.18,-5.13 4.5,7.61 7.2,16.57 5.31,23 -0.12,0.42 -0.25,0.84 -0.39,1.26 -1.28,4 -5.91,13.58 -6.45,14.55 -1.3,2.37 -2.76,4.81 -4.34,7.26 -2.32,3.59 -4.01,5.8 -4.08,5.9 -31.13,44.78 1.86,81.46 9.39,88.9"
   clip-path="url(#SVGID_2_)"
   id="path110"
   inkscape:connector-curvature="0"
   style="fill:#cfae23;stroke:#cfae23;stroke-miterlimit:10" />
	<path
   class="st1"
   d="m 674.12,202.27 c 7.61,-7.36 41.11,-35.68 80.76,-8.12 0.02,0.02 1.92,1.46 4.97,3.43 2.03,1.32 4.11,2.56 6.16,3.69 0.79,0.44 8.97,4.39 12.21,5.42 l 2.07,0.62 c 6.25,1.85 9.63,4.61 16.73,1.85 0.56,-0.14 1.7,-0.89 2.06,-1.21 -0.37,0.41 -1.29,1.5 -1.73,2.39 -2.79,4.81 -2.62,7.42 -0.67,14.08 l 0.32,1.05 c 1.02,3.19 4.87,11.25 5.41,12.21 1.11,2.01 2.35,4.08 3.69,6.17 1.97,3.05 3.42,4.95 3.47,5.02 29.16,41.98 -1.59,80.26 -5.92,85.29 1.78,1.41 3.55,2.86 5.32,4.38 7.53,-7.44 40.52,-44.11 9.4,-88.9 -0.07,-0.1 -1.76,-2.31 -4.08,-5.9 -1.58,-2.45 -3.04,-4.89 -4.34,-7.26 -0.54,-0.97 -5.17,-10.55 -6.44,-14.55 -0.14,-0.42 -0.27,-0.84 -0.39,-1.26 -1.89,-6.43 0.81,-15.39 5.31,-23 -7.62,4.49 -16.76,7.01 -23.18,5.13 L 784,202.41 c -3.88,-1.24 -13.37,-5.79 -14.55,-6.45 -2.46,-1.35 -4.9,-2.81 -7.26,-4.35 -3.59,-2.32 -5.8,-4.01 -5.84,-4.04 -42.64,-29.61 -77.9,-1.24 -87.65,8.08 1.82,2.29 3.64,4.51 5.42,6.62"
   clip-path="url(#SVGID_2_)"
   id="path112"
   inkscape:connector-curvature="0"
   style="fill:#cfae23;stroke:#cfae23;stroke-miterlimit:10" />
	<path
   class="st1"
   d="m 619.37,136.79 c 8.35,35.85 40.4,76.32 57.79,95.15 32,34.64 38.98,71.27 17.8,93.32 -9.79,10.18 -27.55,12.62 -39.49,13.63 2.52,1.28 4.96,2.69 7.32,4.23 1.18,-0.25 2.67,-0.47 4.56,-0.75 9.43,-1.37 26.97,-3.93 39.02,-16.47 23.97,-24.92 15.65,-66.8 -21.18,-106.69 -5.31,-5.75 -11.63,-12.94 -18.27,-21.13 -0.23,-0.34 -0.51,-0.65 -0.77,-0.97 -0.02,-0.02 -0.01,-0.01 -0.02,-0.02 -0.01,-0.01 -0.01,-0.01 -0.02,-0.02 -0.05,-0.06 -0.09,-0.12 -0.14,-0.18 -0.06,-0.07 -0.12,-0.15 -0.18,-0.22 -0.12,-0.15 -0.24,-0.3 -0.36,-0.44 -0.23,-0.28 -0.46,-0.56 -0.69,-0.85 -17.64,-22.13 -36.93,-51.09 -45.38,-80.1 v -2.22 c -0.01,0.01 -0.01,0.03 -0.02,0.04 v 2.18 c -8.45,29.01 -27.75,57.97 -45.38,80.1 -0.23,0.28 -0.46,0.56 -0.69,0.85 -0.12,0.15 -0.24,0.29 -0.36,0.44 -0.06,0.07 -0.12,0.15 -0.18,0.22 -0.05,0.06 -0.1,0.12 -0.14,0.18 -0.01,0.02 -0.01,0.01 -0.02,0.02 0,0 0,0 -0.02,0.02 -0.26,0.31 -0.53,0.63 -0.77,0.97 -6.64,8.19 -12.96,15.38 -18.27,21.13 -36.83,39.9 -45.15,81.78 -21.18,106.69 12.05,12.54 29.59,15.09 39.02,16.47 1.89,0.28 3.38,0.5 4.56,0.75 2.36,-1.53 4.8,-2.95 7.32,-4.23 -11.94,-1.01 -29.71,-3.45 -39.49,-13.63 -21.18,-22.05 -14.2,-58.68 17.8,-93.32 17.4,-18.83 49.45,-59.3 57.8,-95.15"
   clip-path="url(#SVGID_2_)"
   id="path114"
   inkscape:connector-curvature="0"
   style="fill:#cfae23;stroke:#cfae23;stroke-miterlimit:10" />
	<path
   class="st1"
   d="m 685.19,600.44 c 36.83,-39.9 45.15,-81.78 21.18,-106.69 -12.05,-12.54 -29.59,-15.1 -39.02,-16.47 -1.89,-0.28 -3.38,-0.5 -4.56,-0.75 -2.36,1.54 -4.8,2.95 -7.32,4.23 11.94,1.01 29.7,3.45 39.49,13.63 21.18,22.05 14.2,58.68 -17.8,93.32 -17.4,18.83 -49.45,59.3 -57.8,95.15 v -2.4 c 0.02,-1.8 0,-3.61 0.09,-5.41 -0.07,0 -0.14,-0.01 -0.21,-0.01 0.09,1.8 0.08,3.61 0.1,5.42 v 2.4 c -8.35,-35.85 -40.4,-76.31 -57.8,-95.15 -32,-34.64 -38.98,-71.27 -17.8,-93.32 9.79,-10.18 27.55,-12.62 39.49,-13.63 -2.52,-1.28 -4.96,-2.69 -7.32,-4.23 -1.18,0.25 -2.67,0.47 -4.56,0.75 -9.43,1.37 -26.97,3.93 -39.02,16.47 -23.97,24.92 -15.65,66.8 21.18,106.69 5.31,5.75 11.63,12.94 18.27,21.13 0.23,0.34 0.51,0.66 0.77,0.97 0.02,0.02 0.01,0.01 0.01,0.02 0.01,0.01 0.01,0.01 0.02,0.03 0.05,0.06 0.09,0.12 0.14,0.18 0.06,0.07 0.12,0.15 0.18,0.22 0.12,0.15 0.24,0.3 0.36,0.44 0.23,0.28 0.46,0.56 0.69,0.85 17.57,22.05 36.79,50.88 45.29,79.79 0.04,0.1 0.08,0.19 0.12,0.29 8.45,-29 27.74,-57.95 45.37,-80.07 0.23,-0.28 0.46,-0.56 0.69,-0.85 0.12,-0.15 0.24,-0.29 0.36,-0.44 0.06,-0.07 0.12,-0.15 0.18,-0.22 0.05,-0.06 0.09,-0.12 0.14,-0.18 0.01,-0.02 0.01,-0.01 0.02,-0.03 0,0 0,0 0.02,-0.02 0.26,-0.31 0.53,-0.63 0.77,-0.97 6.65,-8.19 12.97,-15.39 18.28,-21.14"
   clip-path="url(#SVGID_2_)"
   id="path116"
   inkscape:connector-curvature="0"
   style="fill:#cfae23;stroke:#cfae23;stroke-miterlimit:10" />
	<path
   class="st1"
   d="m 426.49,474.37 c 33.31,30.75 68.26,41.94 93.76,30.07 0.58,-0.3 1.14,-0.63 1.69,-0.99 2.18,-4.18 4.88,-8.13 8.32,-11.71 2.7,-2.81 5.67,-5.05 8.73,-6.96 1.96,-1.8 3.68,-3.83 5.13,-6.05 0.06,-0.12 0.13,-0.24 0.19,-0.36 3.27,-8.16 4.52,-16.21 5.34,-21.84 0.28,-1.88 0.5,-3.35 0.74,-4.52 0.03,-0.84 -0.01,-1.68 -0.12,-2.51 -2.74,-4.74 -5,-9.77 -6.73,-15.05 -3.77,33.61 -11.05,47.69 -16.41,53.59 -0.83,0.78 -1.68,1.52 -2.59,2.18 -1.15,0.71 -2.36,1.32 -3.52,2.01 -0.03,0.01 -0.07,0.02 -0.09,0.02 -22.52,10.64 -53.22,1.06 -82.21,-25.7 -18,-16.61 -54.79,-46.8 -89.1,-56.69 h 7.03 c 0,-0.03 0,-0.06 0,-0.09 h -7.04 c 34.32,-9.89 71.11,-40.07 89.1,-56.69 28.99,-26.76 59.7,-36.34 82.21,-25.7 0.03,0.01 0.06,0.02 0.09,0.02 1.16,0.7 2.37,1.31 3.52,2.02 0.91,0.66 1.77,1.4 2.59,2.18 5.36,5.9 12.64,19.98 16.41,53.59 1.72,-5.28 3.99,-10.32 6.73,-15.05 0.1,-0.83 0.15,-1.67 0.12,-2.51 -0.24,-1.18 -0.47,-2.64 -0.74,-4.52 -0.82,-5.62 -2.08,-13.67 -5.34,-21.83 -0.06,-0.12 -0.13,-0.24 -0.19,-0.36 -1.45,-2.22 -3.16,-4.25 -5.13,-6.05 -3.07,-1.91 -6.03,-4.15 -8.73,-6.96 -3.44,-3.58 -6.14,-7.53 -8.32,-11.71 -0.55,-0.35 -1.11,-0.68 -1.69,-0.99 -25.5,-11.87 -60.45,-0.68 -93.76,30.07 -20.79,19.19 -59.98,51.53 -99.81,64.51 h -4.74 c 0,0 -0.01,0 -0.01,0.01 0.03,0.02 0.07,0.05 0.1,0.08 h 4.65 c 39.84,12.97 79.03,45.3 99.82,64.49"
   clip-path="url(#SVGID_2_)"
   id="path118"
   inkscape:connector-curvature="0"
   style="fill:#cfae23;stroke:#cfae23;stroke-miterlimit:10" />
	<path
   class="st1"
   d="m 619.54,333.58 h -0.36 c -42.04,0 -76.25,34.2 -76.25,76.25 0,1.06 0.04,2.11 0.08,3.16 0.15,1.44 0.25,2.89 0.29,4.35 3.78,38.53 36.36,68.74 75.87,68.74 h 0.36 c 42.04,0 76.25,-34.2 76.25,-76.25 0,-42.05 -34.2,-76.25 -76.24,-76.25"
   clip-path="url(#SVGID_2_)"
   id="path120"
   inkscape:connector-curvature="0"
   style="fill:#cfae23;stroke:#cfae23;stroke-miterlimit:10" />
	<path
   class="st1"
   d="m 570.04,623.99 c -1.84,-2.28 -3.66,-4.49 -5.44,-6.61 -7.61,7.35 -41.11,35.68 -80.76,8.12 -0.02,-0.02 -1.92,-1.46 -4.97,-3.43 -2.03,-1.32 -4.11,-2.56 -6.16,-3.69 -0.79,-0.44 -8.97,-4.39 -12.21,-5.42 l -2.07,-0.62 c -6.25,-1.85 -9.63,-4.61 -16.72,-1.85 -0.56,0.15 -1.7,0.89 -2.06,1.21 0.37,-0.41 1.3,-1.5 1.73,-2.39 2.79,-4.81 2.63,-7.42 0.67,-14.08 l -0.32,-1.05 c -1.02,-3.19 -4.87,-11.25 -5.41,-12.21 -1.11,-2.01 -2.35,-4.08 -3.69,-6.17 -1.97,-3.05 -3.42,-4.95 -3.48,-5.02 -29.16,-41.98 1.59,-80.26 5.92,-85.29 -1.78,-1.41 -3.55,-2.86 -5.32,-4.38 -7.53,7.44 -40.52,44.11 -9.4,88.9 0.07,0.1 1.76,2.31 4.08,5.9 1.58,2.45 3.04,4.89 4.34,7.26 0.54,0.97 5.17,10.55 6.44,14.55 0.14,0.42 0.27,0.84 0.39,1.26 1.89,6.43 -0.81,15.39 -5.31,23 7.62,-4.5 16.76,-7.01 23.18,-5.13 l 1.25,0.38 c 3.88,1.24 13.37,5.79 14.55,6.45 2.46,1.35 4.9,2.81 7.26,4.34 3.59,2.32 5.8,4.01 5.84,4.04 42.66,29.62 77.92,1.25 87.67,-8.07"
   clip-path="url(#SVGID_2_)"
   id="path122"
   inkscape:connector-curvature="0"
   style="fill:#cfae23;stroke:#cfae23;stroke-miterlimit:10" />
	<path
   class="st1"
   d="m 918.28,409.87 c -0.08,-0.03 -0.17,-0.06 -0.25,-0.08 h -5.99 c -39.83,-12.98 -79.02,-45.31 -99.81,-64.51 -33.31,-30.75 -68.26,-41.95 -93.76,-30.07 -0.58,0.3 -1.14,0.63 -1.69,0.99 -2.18,4.18 -4.88,8.13 -8.32,11.71 -2.7,2.81 -5.67,5.05 -8.73,6.96 -1.96,1.8 -3.68,3.83 -5.13,6.05 -0.06,0.12 -0.13,0.24 -0.19,0.36 -3.27,8.16 -4.52,16.21 -5.34,21.83 -0.27,1.88 -0.5,3.35 -0.74,4.52 -0.03,0.84 0.01,1.68 0.12,2.51 2.74,4.73 5,9.77 6.73,15.05 3.77,-33.61 11.05,-47.69 16.41,-53.59 0.82,-0.78 1.68,-1.52 2.59,-2.18 1.15,-0.71 2.36,-1.32 3.52,-2.02 0.03,-0.01 0.07,-0.02 0.09,-0.02 22.52,-10.64 53.22,-1.06 82.21,25.7 18,16.61 54.78,46.8 89.1,56.69 h -7.81 c -0.01,0.03 -0.02,0.06 -0.03,0.08 h 7.84 c -34.32,9.89 -71.1,40.08 -89.1,56.69 -28.99,26.76 -59.7,36.35 -82.21,25.7 -0.03,-0.01 -0.06,-0.01 -0.09,-0.02 -1.16,-0.7 -2.37,-1.31 -3.52,-2.02 -0.91,-0.66 -1.77,-1.4 -2.59,-2.18 -5.36,-5.9 -12.64,-19.98 -16.41,-53.59 -1.72,5.28 -3.99,10.32 -6.73,15.05 -0.1,0.83 -0.15,1.67 -0.12,2.51 0.24,1.18 0.47,2.64 0.74,4.52 0.82,5.62 2.08,13.67 5.34,21.83 0.06,0.12 0.13,0.24 0.19,0.36 1.45,2.22 3.17,4.25 5.13,6.05 3.07,1.91 6.03,4.15 8.73,6.96 3.44,3.58 6.14,7.53 8.32,11.71 0.55,0.35 1.11,0.68 1.69,0.99 25.49,11.87 60.45,0.68 93.76,-30.07 20.79,-19.19 59.98,-51.53 99.81,-64.51 h 6.24 z"
   clip-path="url(#SVGID_2_)"
   id="path124"
   inkscape:connector-curvature="0"
   style="fill:#cfae23;stroke:#cfae23;stroke-miterlimit:10" />
	<path
   class="st1"
   d="m 756.33,632.07 c 0.04,-0.03 2.25,-1.72 5.84,-4.04 2.36,-1.54 4.81,-2.99 7.26,-4.35 1.18,-0.65 10.68,-5.21 14.55,-6.45 l 1.25,-0.39 c 6.42,-1.89 15.57,0.63 23.18,5.13 -4.5,-7.61 -7.2,-16.57 -5.31,-23 0.12,-0.42 0.25,-0.84 0.39,-1.26 1.28,-4 5.91,-13.58 6.44,-14.55 1.31,-2.37 2.76,-4.81 4.34,-7.26 2.32,-3.59 4.01,-5.8 4.08,-5.9 31.11,-44.78 -1.87,-81.46 -9.4,-88.9 -1.77,1.52 -3.54,2.97 -5.32,4.38 4.34,5.03 35.09,43.32 5.92,85.29 -0.06,0.07 -1.5,1.97 -3.47,5.02 -1.34,2.09 -2.58,4.16 -3.69,6.17 -0.54,0.97 -4.39,9.02 -5.41,12.21 l -0.32,1.05 c -1.96,6.66 -2.12,9.27 0.67,14.08 0.43,0.89 1.35,1.98 1.73,2.39 -0.36,-0.32 -1.5,-1.07 -2.06,-1.21 -7.1,-2.77 -10.47,0 -16.73,1.85 l -2.07,0.62 c -3.24,1.03 -11.42,4.98 -12.21,5.42 -2.06,1.12 -4.13,2.37 -6.16,3.69 -3.05,1.97 -4.95,3.42 -4.97,3.44 -39.65,27.57 -73.15,-0.76 -80.76,-8.12 -1.78,2.11 -3.6,4.33 -5.43,6.61 9.76,9.32 45.02,37.69 87.66,8.08"
   clip-path="url(#SVGID_2_)"
   id="path126"
   inkscape:connector-curvature="0"
   style="fill:#cfae23;stroke:#cfae23;stroke-miterlimit:10" />
	<use
   xlink:href="#SVGID_1_"
   style="overflow:visible;fill:none;stroke:#cfae23;stroke-miterlimit:10"
   id="use128"
   x="0"
   y="0"
   width="100%"
   height="100%" />
</g>
<g
   id="g140"
   transform="translate(-313.92509,-104.00037)">
	<defs
   id="defs133">
		<rect
   id="SVGID_3_"
   width="1190.55"
   height="841.89001"
   x="0"
   y="0" />
	</defs>
	<clipPath
   id="SVGID_4_">
		<use
   xlink:href="#SVGID_3_"
   style="overflow:visible"
   id="use135"
   x="0"
   y="0"
   width="100%"
   height="100%" />
	</clipPath>
	<path
   class="st2"
   d="m 619.35,136.79 c -8.35,35.85 -40.4,76.32 -57.8,95.15 -32,34.64 -38.98,71.27 -17.8,93.32 9.79,10.18 27.55,12.62 39.49,13.63 -2.52,1.28 -4.96,2.69 -7.32,4.23 -1.18,-0.25 -2.67,-0.47 -4.56,-0.75 -9.43,-1.37 -26.97,-3.93 -39.02,-16.47 -23.97,-24.92 -15.65,-66.8 21.18,-106.69 5.31,-5.75 11.63,-12.94 18.27,-21.13 0.23,-0.34 0.51,-0.66 0.77,-0.97 0.02,-0.02 0.01,-0.01 0.01,-0.02 0.01,-0.01 0.01,-0.01 0.02,-0.03 0.05,-0.06 0.09,-0.12 0.14,-0.18 0.06,-0.07 0.12,-0.15 0.18,-0.22 0.12,-0.15 0.24,-0.3 0.36,-0.44 0.23,-0.28 0.46,-0.56 0.69,-0.85 17.63,-22.13 36.93,-51.09 45.38,-80.1 v -6.96 c -7.12,30.61 -28.8,61.6 -47.54,85.12 -10.56,-9.77 -47.58,-38.45 -91.12,-8.19 -0.02,0.02 -2.23,1.69 -5.71,3.95 -2.31,1.5 -4.7,2.92 -7.09,4.24 -1.11,0.62 -10.4,5.06 -14.04,6.23 l -1.18,0.36 c -7.07,2.08 -23.12,-3.76 -29.56,-9.6 0,0 -0.01,0 -0.01,0.01 5.84,6.43 11.82,22.34 9.74,29.43 l -0.37,1.18 c -1.2,3.76 -5.72,13.14 -6.22,14.04 -1.27,2.31 -2.7,4.69 -4.24,7.09 -2.25,3.48 -3.93,5.69 -3.99,5.76 -31.81,45.78 1.63,84.37 9.59,92.5 -1.02,0.91 -2.05,1.77 -3.07,2.71 -22.26,20.54 -65.76,56.36 -108.14,66.63 h 10.29 c 39.83,-12.98 79.02,-45.31 99.81,-64.51 33.31,-30.75 68.26,-41.94 93.76,-30.07 0.58,0.3 1.14,0.63 1.69,0.99 2.18,4.18 4.88,8.13 8.32,11.71 2.7,2.81 5.67,5.05 8.73,6.96 1.96,1.8 3.67,3.83 5.13,6.05 0.06,0.12 0.13,0.24 0.19,0.36 3.27,8.16 4.52,16.21 5.34,21.83 0.27,1.88 0.5,3.35 0.74,4.52 0.03,0.84 -0.01,1.68 -0.12,2.51 -2.74,4.73 -5,9.77 -6.73,15.05 -3.77,-33.61 -11.05,-47.69 -16.41,-53.59 -0.83,-0.78 -1.68,-1.52 -2.59,-2.18 -1.15,-0.71 -2.36,-1.32 -3.52,-2.02 -0.03,-0.01 -0.07,-0.02 -0.09,-0.02 -22.52,-10.64 -53.22,-1.06 -82.21,25.7 -18,16.61 -54.79,46.8 -89.1,56.69 h 8.09 c 33.5,-11.03 65.5,-38.43 82.98,-54.56 28.04,-25.87 57.51,-35.29 78.89,-25.26 0.02,0.02 0.03,0.04 0.05,0.05 2.73,1.78 5.21,3.89 7.44,6.25 0.18,0.22 0.36,0.44 0.54,0.67 4.87,7.45 10.9,23.13 13.82,56.11 -1.17,5.41 -1.8,11.02 -1.8,16.78 0,5.76 0.63,11.37 1.8,16.78 -2.92,32.98 -8.95,48.67 -13.82,56.11 -0.18,0.22 -0.36,0.44 -0.54,0.67 -2.23,2.36 -4.72,4.47 -7.44,6.25 -0.02,0.01 -0.03,0.03 -0.05,0.05 -21.37,10.03 -50.85,0.62 -78.89,-25.26 -17.47,-16.13 -49.48,-43.53 -82.98,-54.56 h -8.09 c 34.32,9.89 71.11,40.07 89.1,56.69 28.99,26.76 59.7,36.34 82.21,25.7 0.03,-0.01 0.06,-0.02 0.09,-0.02 1.16,-0.69 2.37,-1.31 3.52,-2.01 0.91,-0.66 1.77,-1.4 2.59,-2.18 5.36,-5.9 12.64,-19.97 16.41,-53.59 1.72,5.28 3.99,10.32 6.73,15.05 0.1,0.83 0.15,1.67 0.12,2.51 -0.25,1.18 -0.47,2.64 -0.74,4.52 -0.82,5.62 -2.07,13.67 -5.34,21.84 -0.06,0.12 -0.13,0.24 -0.19,0.36 -1.45,2.22 -3.16,4.25 -5.13,6.05 -3.07,1.91 -6.03,4.15 -8.73,6.96 -3.44,3.58 -6.14,7.53 -8.32,11.71 -0.55,0.35 -1.11,0.68 -1.69,0.99 -25.5,11.87 -60.45,0.68 -93.76,-30.07 -20.79,-19.19 -59.98,-51.53 -99.81,-64.51 h -10.29 c 42.39,10.27 85.89,46.09 108.14,66.63 1.02,0.94 2.05,1.81 3.07,2.71 -7.96,8.13 -41.4,46.71 -9.59,92.5 0.06,0.07 1.73,2.28 3.99,5.76 1.54,2.4 2.97,4.78 4.24,7.09 0.5,0.9 5.02,10.28 6.22,14.04 l 0.37,1.18 c 2.09,7.09 -3.9,23 -9.74,29.43 0,0 0.01,0.01 0.01,0.01 6.44,-5.83 22.49,-11.68 29.56,-9.6 l 1.18,0.36 c 3.64,1.16 12.93,5.61 14.04,6.23 2.39,1.32 4.78,2.74 7.09,4.24 3.48,2.26 5.69,3.93 5.71,3.95 43.54,30.26 80.56,1.58 91.12,-8.19 18.74,23.53 40.42,54.52 47.54,85.12 v -6.95 c -8.45,-29.01 -27.75,-57.97 -45.38,-80.1 -0.23,-0.28 -0.46,-0.56 -0.69,-0.85 -0.12,-0.15 -0.24,-0.29 -0.36,-0.45 -0.06,-0.07 -0.12,-0.15 -0.18,-0.22 -0.05,-0.06 -0.09,-0.12 -0.14,-0.18 -0.01,-0.02 -0.01,-0.01 -0.02,-0.02 0,0 0,0 -0.02,-0.02 -0.26,-0.31 -0.53,-0.63 -0.77,-0.97 -6.64,-8.19 -12.96,-15.38 -18.27,-21.13 -36.83,-39.9 -45.15,-81.78 -21.18,-106.69 12.05,-12.54 29.59,-15.1 39.02,-16.47 1.89,-0.28 3.38,-0.5 4.56,-0.75 2.36,1.53 4.8,2.95 7.32,4.23 -11.94,1.01 -29.71,3.45 -39.49,13.63 -21.18,22.05 -14.2,58.68 17.8,93.32 17.4,18.83 49.45,59.3 57.8,95.15 v -2.39 c -0.02,-2.4 0.01,-4.81 -0.23,-7.2 -10.09,-34.73 -38.72,-69.41 -55.44,-87.52 -30.88,-33.42 -37.88,-68.49 -17.83,-89.35 10.34,-10.76 31,-12.28 42.1,-13.09 0.23,-0.02 0.43,-0.03 0.65,-0.05 9.42,3.94 19.75,6.12 30.59,6.12 h 0.36 c 10.83,0 21.16,-2.18 30.59,-6.12 0.22,0.02 0.42,0.03 0.65,0.05 11.1,0.82 31.76,2.34 42.1,13.09 20.04,20.86 13.04,55.93 -17.83,89.35 -16.72,18.11 -45.35,52.79 -55.44,87.52 -0.24,2.39 -0.21,4.8 -0.23,7.2 v 2.39 c 8.35,-35.85 40.4,-76.31 57.8,-95.15 32,-34.64 38.98,-71.27 17.8,-93.32 -9.79,-10.19 -27.55,-12.62 -39.49,-13.63 2.52,-1.28 4.96,-2.69 7.32,-4.23 1.18,0.25 2.67,0.47 4.56,0.75 9.43,1.37 26.97,3.93 39.02,16.47 23.97,24.92 15.65,66.8 -21.18,106.69 -5.31,5.75 -11.63,12.94 -18.27,21.13 -0.23,0.34 -0.51,0.66 -0.77,0.97 -0.02,0.02 -0.01,0.01 -0.02,0.02 -0.01,0.01 -0.01,0.01 -0.02,0.02 -0.05,0.06 -0.09,0.12 -0.14,0.18 -0.06,0.07 -0.12,0.15 -0.18,0.22 -0.12,0.15 -0.24,0.3 -0.36,0.45 -0.23,0.28 -0.46,0.56 -0.69,0.85 -17.64,22.13 -36.93,51.09 -45.38,80.1 v 6.95 c 7.12,-30.6 28.8,-61.6 47.54,-85.12 10.56,9.77 47.58,38.45 91.12,8.19 0.02,-0.02 2.23,-1.69 5.71,-3.95 2.31,-1.5 4.7,-2.93 7.09,-4.24 1.11,-0.62 10.4,-5.06 14.04,-6.23 l 1.19,-0.36 c 7.07,-2.08 23.12,3.76 29.56,9.6 0,0 0.01,-0.01 0.01,-0.01 -5.84,-6.43 -11.83,-22.34 -9.74,-29.43 l 0.37,-1.18 c 1.2,-3.76 5.72,-13.14 6.22,-14.04 1.27,-2.31 2.7,-4.69 4.24,-7.09 2.25,-3.49 3.93,-5.69 3.99,-5.76 31.81,-45.78 -1.63,-84.37 -9.59,-92.5 1.03,-0.91 2.05,-1.77 3.07,-2.71 22.26,-20.54 65.76,-56.36 108.14,-66.63 h -10.29 c -39.83,12.98 -79.02,45.31 -99.81,64.51 -33.31,30.75 -68.26,41.94 -93.76,30.07 -0.58,-0.3 -1.14,-0.63 -1.69,-0.99 -2.18,-4.18 -4.88,-8.13 -8.32,-11.71 -2.7,-2.81 -5.67,-5.05 -8.73,-6.96 -1.96,-1.8 -3.68,-3.83 -5.13,-6.05 -0.06,-0.12 -0.13,-0.24 -0.19,-0.36 -3.26,-8.16 -4.52,-16.21 -5.34,-21.84 -0.28,-1.88 -0.5,-3.35 -0.74,-4.52 -0.03,-0.84 0.01,-1.68 0.12,-2.51 2.74,-4.73 5,-9.77 6.73,-15.05 3.77,33.61 11.05,47.69 16.41,53.59 0.83,0.78 1.68,1.52 2.59,2.18 1.15,0.71 2.36,1.32 3.52,2.01 0.03,0.01 0.07,0.02 0.09,0.02 22.52,10.64 53.22,1.06 82.21,-25.7 18,-16.61 54.78,-46.8 89.1,-56.69 H 881 c -33.5,11.03 -65.5,38.43 -82.98,54.56 -28.04,25.87 -57.51,35.29 -78.89,25.26 -0.02,-0.02 -0.03,-0.04 -0.05,-0.05 -2.72,-1.78 -5.21,-3.89 -7.44,-6.25 -0.18,-0.23 -0.36,-0.45 -0.54,-0.67 -4.87,-7.45 -10.9,-23.13 -13.82,-56.11 1.17,-5.41 1.8,-11.02 1.8,-16.78 0,-5.76 -0.63,-11.37 -1.8,-16.78 2.92,-32.98 8.95,-48.67 13.82,-56.11 0.18,-0.23 0.36,-0.45 0.54,-0.67 2.23,-2.36 4.72,-4.47 7.44,-6.25 0.02,-0.01 0.03,-0.04 0.05,-0.05 21.38,-10.03 50.85,-0.62 78.89,25.26 17.48,16.13 49.48,43.53 82.98,54.56 h 8.09 c -34.32,-9.89 -71.1,-40.07 -89.1,-56.69 -29,-26.76 -59.7,-36.34 -82.21,-25.7 -0.03,0.01 -0.06,0.01 -0.09,0.02 -1.16,0.7 -2.37,1.31 -3.52,2.02 -0.91,0.66 -1.77,1.4 -2.59,2.18 -5.36,5.9 -12.64,19.98 -16.41,53.59 -1.73,-5.28 -3.99,-10.32 -6.73,-15.05 -0.11,-0.83 -0.15,-1.67 -0.12,-2.51 0.24,-1.18 0.47,-2.64 0.74,-4.52 0.82,-5.62 2.08,-13.67 5.34,-21.83 0.06,-0.12 0.13,-0.24 0.19,-0.36 1.45,-2.22 3.16,-4.25 5.13,-6.05 3.07,-1.91 6.03,-4.15 8.73,-6.96 3.44,-3.58 6.14,-7.53 8.32,-11.71 0.55,-0.36 1.11,-0.68 1.69,-0.99 25.49,-11.87 60.45,-0.68 93.76,30.07 20.79,19.19 59.98,51.53 99.81,64.51 h 10.29 c -42.39,-10.27 -85.89,-46.09 -108.14,-66.63 -1.02,-0.94 -2.05,-1.81 -3.07,-2.71 7.96,-8.13 41.4,-46.71 9.59,-92.5 -0.06,-0.07 -1.73,-2.28 -3.99,-5.76 -1.54,-2.4 -2.97,-4.78 -4.24,-7.09 -0.5,-0.9 -5.02,-10.28 -6.22,-14.04 l -0.37,-1.18 c -2.09,-7.1 3.9,-23 9.74,-29.43 0,0 -0.01,0 -0.01,-0.01 -6.44,5.83 -22.49,11.68 -29.56,9.6 l -1.18,-0.36 c -3.64,-1.16 -12.93,-5.61 -14.04,-6.23 -2.4,-1.32 -4.78,-2.75 -7.09,-4.24 -3.48,-2.26 -5.69,-3.93 -5.71,-3.95 -43.54,-30.26 -80.56,-1.58 -91.12,8.19 -18.74,-23.53 -40.42,-54.52 -47.54,-85.12 v 6.96 c 8.45,29.01 27.75,57.97 45.38,80.1 0.23,0.28 0.46,0.56 0.69,0.85 0.12,0.15 0.24,0.29 0.36,0.44 0.06,0.07 0.12,0.15 0.18,0.22 0.05,0.06 0.09,0.12 0.14,0.18 0.01,0.02 0.01,0.01 0.02,0.03 0,0 0,0 0.01,0.02 0.26,0.31 0.53,0.63 0.77,0.97 6.64,8.19 12.96,15.38 18.27,21.13 36.83,39.9 45.14,81.78 21.18,106.69 -12.05,12.54 -29.59,15.09 -39.02,16.47 -1.89,0.28 -3.38,0.5 -4.56,0.75 -2.36,-1.53 -4.8,-2.95 -7.32,-4.23 11.94,-1.01 29.71,-3.45 39.49,-13.63 21.18,-22.05 14.2,-58.68 -17.8,-93.32 -17.4,-18.83 -49.45,-59.3 -57.8,-95.15 m 49.32,58.88 c 9.75,-9.32 45.01,-37.7 87.65,-8.08 0.04,0.03 2.25,1.72 5.84,4.04 2.36,1.54 4.81,2.99 7.27,4.34 1.18,0.66 10.67,5.21 14.55,6.45 l 1.25,0.39 c 6.42,1.89 15.57,-0.63 23.18,-5.13 -4.5,7.61 -7.2,16.57 -5.31,23 0.12,0.42 0.25,0.84 0.39,1.26 1.28,4.01 5.91,13.58 6.44,14.55 1.31,2.37 2.76,4.81 4.34,7.26 2.32,3.59 4.01,5.8 4.08,5.9 31.11,44.78 -1.87,81.46 -9.4,88.9 -1.77,-1.52 -3.54,-2.97 -5.32,-4.38 4.34,-5.03 35.09,-43.32 5.92,-85.29 -0.06,-0.07 -1.5,-1.97 -3.47,-5.02 -1.34,-2.09 -2.58,-4.16 -3.69,-6.17 -0.54,-0.97 -4.39,-9.02 -5.41,-12.21 l -0.32,-1.05 c -1.95,-6.66 -2.12,-9.27 0.67,-14.08 0.43,-0.89 1.35,-1.98 1.73,-2.39 -0.36,0.32 -1.5,1.06 -2.06,1.21 -7.1,2.76 -10.47,0 -16.73,-1.85 l -2.07,-0.62 c -3.24,-1.03 -11.42,-4.98 -12.21,-5.42 -2.06,-1.12 -4.13,-2.37 -6.16,-3.69 -3.05,-1.97 -4.95,-3.42 -4.97,-3.43 -39.65,-27.57 -73.15,0.76 -80.76,8.12 -1.77,-2.12 -3.59,-4.34 -5.43,-6.61 m 18.64,21.57 c -3.41,-3.7 -7.27,-8.03 -11.33,-12.79 6.86,-6.87 38.58,-34.81 77.2,-7.96 0.03,0.02 1.97,1.5 5.1,3.53 2.09,1.36 4.23,2.63 6.34,3.8 0.86,0.47 9.26,4.53 12.73,5.64 l 2.12,0.64 c 4.77,1.42 9.97,2.95 14.4,2.22 -1.84,3.97 -1.36,8.18 0.04,12.94 l 0.34,1.1 c 1.1,3.42 5.07,11.7 5.64,12.73 1.14,2.06 2.41,4.2 3.79,6.34 2.03,3.14 3.51,5.08 3.57,5.16 28.19,40.59 -2.28,77.68 -5.85,81.78 -29.54,-22.69 -59.43,-30.21 -82.51,-20.43 10.61,-25.99 -0.58,-61.11 -31.58,-94.7 M 429.75,338.55 c -7.53,-7.44 -40.52,-44.11 -9.4,-88.9 0.07,-0.09 1.76,-2.31 4.08,-5.9 1.58,-2.45 3.04,-4.89 4.35,-7.26 0.54,-0.97 5.17,-10.55 6.44,-14.55 0.13,-0.42 0.27,-0.84 0.39,-1.26 1.89,-6.43 -0.81,-15.39 -5.31,-23 7.62,4.49 16.76,7.01 23.19,5.13 l 1.25,-0.38 c 3.88,-1.24 13.37,-5.79 14.55,-6.45 2.46,-1.35 4.9,-2.81 7.27,-4.34 3.59,-2.32 5.8,-4.01 5.84,-4.04 42.64,-29.62 77.9,-1.24 87.65,8.08 -1.84,2.28 -3.66,4.49 -5.44,6.61 -7.61,-7.36 -41.11,-35.68 -80.76,-8.12 -0.02,0.02 -1.92,1.46 -4.97,3.43 -2.03,1.32 -4.11,2.56 -6.16,3.69 -0.8,0.44 -8.98,4.38 -12.21,5.42 l -2.07,0.62 c -6.25,1.85 -9.63,4.61 -16.73,1.85 -0.56,-0.14 -1.7,-0.89 -2.06,-1.21 0.37,0.41 1.29,1.5 1.73,2.39 2.79,4.81 2.63,7.42 0.67,14.08 l -0.32,1.05 c -1.02,3.19 -4.88,11.25 -5.41,12.21 -1.11,2.01 -2.35,4.08 -3.69,6.17 -1.97,3.05 -3.42,4.95 -3.48,5.02 -29.16,41.98 1.59,80.26 5.92,85.29 -1.78,1.4 -3.55,2.85 -5.32,4.37 m 7.57,-6.2 c -3.57,-4.1 -34.04,-41.19 -5.85,-81.78 0.06,-0.08 1.54,-2.02 3.57,-5.16 1.38,-2.14 2.65,-4.27 3.79,-6.34 0.57,-1.03 4.54,-9.31 5.64,-12.73 l 0.34,-1.1 c 1.39,-4.76 1.88,-8.97 0.04,-12.94 4.43,0.73 9.63,-0.8 14.4,-2.22 l 2.12,-0.64 c 3.47,-1.11 11.87,-5.16 12.73,-5.64 2.12,-1.16 4.25,-2.44 6.34,-3.8 3.13,-2.03 5.07,-3.51 5.1,-3.53 38.62,-26.85 70.34,1.1 77.2,7.96 -4.07,4.76 -7.92,9.09 -11.33,12.79 -31,33.59 -42.19,68.71 -31.58,94.68 -23.07,-9.76 -52.97,-2.24 -82.51,20.45 m 132.72,291.64 c -9.75,9.32 -45.01,37.7 -87.65,8.08 -0.04,-0.03 -2.25,-1.72 -5.84,-4.04 -2.36,-1.54 -4.81,-2.99 -7.27,-4.34 -1.18,-0.66 -10.67,-5.21 -14.55,-6.45 l -1.25,-0.38 c -6.42,-1.89 -15.57,0.63 -23.18,5.13 4.5,-7.61 7.2,-16.57 5.31,-23 -0.12,-0.42 -0.25,-0.84 -0.39,-1.26 -1.27,-4.01 -5.91,-13.58 -6.44,-14.55 -1.31,-2.37 -2.76,-4.81 -4.35,-7.26 -2.32,-3.59 -4.01,-5.8 -4.08,-5.9 -31.11,-44.78 1.87,-81.46 9.4,-88.9 1.77,1.52 3.54,2.96 5.32,4.38 -4.34,5.03 -35.09,43.32 -5.92,85.29 0.06,0.07 1.5,1.97 3.47,5.02 1.34,2.09 2.58,4.16 3.69,6.17 0.54,0.97 4.39,9.02 5.41,12.21 l 0.32,1.05 c 1.95,6.66 2.12,9.27 -0.67,14.08 -0.43,0.89 -1.35,1.98 -1.73,2.39 0.36,-0.32 1.5,-1.06 2.06,-1.21 7.1,-2.76 10.47,0 16.73,1.85 l 2.07,0.62 c 3.24,1.03 11.42,4.98 12.21,5.42 2.06,1.12 4.13,2.37 6.16,3.69 3.05,1.97 4.95,3.42 4.97,3.43 39.65,27.57 73.15,-0.76 80.76,-8.12 1.78,2.1 3.6,4.32 5.44,6.6 m -18.63,-21.58 c 3.41,3.7 7.27,8.03 11.33,12.79 -6.86,6.87 -38.58,34.81 -77.2,7.96 -0.03,-0.02 -1.97,-1.5 -5.1,-3.53 -2.09,-1.36 -4.23,-2.63 -6.34,-3.8 -0.86,-0.47 -9.26,-4.52 -12.73,-5.64 l -2.12,-0.64 c -4.77,-1.42 -9.97,-2.95 -14.4,-2.22 1.83,-3.97 1.36,-8.18 -0.04,-12.94 l -0.34,-1.1 c -1.1,-3.42 -5.07,-11.7 -5.64,-12.73 -1.14,-2.06 -2.41,-4.2 -3.79,-6.34 -2.03,-3.14 -3.51,-5.08 -3.57,-5.16 -28.19,-40.59 2.27,-77.68 5.85,-81.78 29.54,22.69 59.43,30.21 82.51,20.43 -10.62,25.99 0.57,61.11 31.58,94.7 M 667.77,345.23 c 6.01,-0.88 15.2,-2.24 24.35,-6.23 -3.75,8.88 -5.04,17.65 -5.92,23.69 -0.15,1.03 -0.31,2.11 -0.47,3.08 -5.26,-7.87 -11.88,-14.75 -19.53,-20.31 0.53,-0.07 1.05,-0.15 1.57,-0.23 M 545.85,323.26 c -20.04,-20.86 -13.04,-55.94 17.83,-89.35 16.72,-18.11 45.55,-53.2 55.64,-87.92 10.09,34.73 39,69.82 55.72,87.92 30.88,33.42 37.87,68.49 17.83,89.35 -10.34,10.75 -31,12.27 -42.1,13.09 -0.23,0.02 -0.43,0.03 -0.65,0.05 -9.42,-3.94 -19.75,-6.12 -30.58,-6.12 h -0.36 c -10.83,0 -21.16,2.18 -30.58,6.12 -0.22,-0.02 -0.42,-0.03 -0.65,-0.05 -11.1,-0.82 -31.77,-2.34 -42.1,-13.09 M 546.6,339 c 9.15,3.99 18.35,5.35 24.35,6.23 0.52,0.08 1.04,0.15 1.56,0.23 -7.65,5.56 -14.27,12.43 -19.53,20.3 -0.16,-0.97 -0.32,-2.04 -0.47,-3.08 -0.87,-6.03 -2.16,-14.79 -5.91,-23.68 m 24.35,135.42 c -6.01,0.88 -15.2,2.24 -24.36,6.23 3.75,-8.88 5.04,-17.65 5.92,-23.69 0.15,-1.03 0.31,-2.1 0.47,-3.08 5.26,7.87 11.88,14.75 19.52,20.3 -0.51,0.09 -1.03,0.16 -1.55,0.24 m 48.59,11.65 h -0.36 c -42.04,0 -76.25,-34.2 -76.25,-76.25 0,-42.05 34.2,-76.25 76.25,-76.25 h 0.36 c 42.04,0 76.24,34.2 76.24,76.25 0,42.05 -34.2,76.25 -76.24,76.25 m 48.23,-11.65 c -0.51,-0.08 -1.04,-0.15 -1.56,-0.23 7.64,-5.56 14.27,-12.43 19.52,-20.3 0.16,0.97 0.32,2.04 0.47,3.08 0.88,6.04 2.17,14.81 5.92,23.69 -9.15,-4 -18.34,-5.36 -24.35,-6.24 m 19.55,127.99 c 31,-33.59 42.19,-68.71 31.58,-94.68 23.07,9.78 52.96,2.26 82.51,-20.43 3.57,4.1 34.04,41.19 5.85,81.78 -0.06,0.08 -1.54,2.02 -3.57,5.16 -1.38,2.14 -2.65,4.27 -3.79,6.34 -0.57,1.03 -4.54,9.31 -5.64,12.73 l -0.34,1.1 c -1.39,4.76 -1.88,8.97 -0.04,12.94 -4.43,-0.73 -9.63,0.8 -14.4,2.22 l -2.12,0.64 c -3.47,1.11 -11.87,5.16 -12.73,5.64 -2.12,1.16 -4.25,2.44 -6.34,3.8 -3.13,2.03 -5.07,3.51 -5.1,3.53 -38.62,26.85 -70.34,-1.1 -77.2,-7.96 4.06,-4.78 7.91,-9.11 11.33,-12.81 M 818.38,570 c -0.07,0.1 -1.76,2.31 -4.08,5.9 -1.58,2.45 -3.04,4.89 -4.34,7.26 -0.54,0.97 -5.17,10.55 -6.44,14.55 -0.14,0.42 -0.27,0.84 -0.39,1.26 -1.89,6.43 0.81,15.39 5.31,23 -7.62,-4.49 -16.76,-7.01 -23.18,-5.13 l -1.25,0.38 c -3.88,1.24 -13.37,5.79 -14.55,6.45 -2.46,1.35 -4.9,2.81 -7.27,4.34 -3.59,2.32 -5.8,4.01 -5.84,4.04 -42.64,29.62 -77.9,1.24 -87.65,-8.08 1.84,-2.28 3.66,-4.49 5.43,-6.61 7.61,7.35 41.11,35.68 80.76,8.12 0.02,-0.02 1.92,-1.47 4.97,-3.43 2.03,-1.32 4.1,-2.56 6.16,-3.69 0.8,-0.44 8.98,-4.39 12.21,-5.42 l 2.07,-0.62 c 6.25,-1.85 9.63,-4.61 16.73,-1.85 0.56,0.14 1.7,0.89 2.06,1.21 -0.37,-0.41 -1.29,-1.5 -1.73,-2.39 -2.79,-4.81 -2.63,-7.42 -0.67,-14.08 l 0.32,-1.05 c 1.02,-3.19 4.88,-11.25 5.41,-12.21 1.11,-2.01 2.35,-4.08 3.69,-6.17 1.97,-3.05 3.42,-4.95 3.47,-5.02 29.16,-41.98 -1.59,-80.26 -5.92,-85.29 1.78,-1.41 3.55,-2.86 5.32,-4.38 7.52,7.45 40.51,44.13 9.4,88.91"
   clip-path="url(#SVGID_4_)"
   id="path138"
   inkscape:connector-curvature="0"
   style="fill:#020203" />
</g>
</svg>